<svg id="Layer_1" data-name="Layer 1" xmlns="http://www.w3.org/2000/svg" viewBox="0 0 200 200"><defs><style>.cls-1{fill:#0000c8;}.cls-2{fill:#7f46f0;}.cls-2,.cls-3,.cls-4,.cls-5{fill-rule:evenodd;}.cls-3{fill:#d34fa0;}.cls-4{fill:#0aa5e8;}.cls-5{fill:#38e4de;}</style></defs><circle class="cls-1" cx="100" cy="100" r="100"/><path class="cls-2" d="M112.15,115.56V134a32.09,32.09,0,0,1-32.05,32H58.24V141.76H79.67a8.19,8.19,0,0,0,8.18-8.17V112.15h24.3Z"/><path class="cls-3" d="M84.44,87.85H66A32.09,32.09,0,0,0,33.93,119.9v21.86H58.24V120.33a8.19,8.19,0,0,1,8.17-8.18H87.85V87.85Z"/><path class="cls-4" d="M115.56,112.15H134a32.09,32.09,0,0,0,32-32.05V58.24H141.76V79.67a8.19,8.19,0,0,1-8.17,8.18H112.15v24.3Z"/><path class="cls-5" d="M87.85,84.44V66A32.09,32.09,0,0,1,119.9,33.93h21.86V58.24H120.33a8.19,8.19,0,0,0-8.18,8.17V87.85H87.85Z"/></svg>